/* XPM */
static const char *start_xpm[] = {
"80 20 2 1",
" 	c #000000",
".	c #FFFFFF",
"                                                                                ",
"   ....   ...   ..  ..  .....   ....                                            ",
"  .      .   .  . .. .  .      .                                                ",
"  .  ..  .   .  .    .  .....   ...                                             ",
"  .   .  .   .  .    .      .      .                                            ",
"   ...    ...   .    .  .....   ....                                            ",
"                                                                                ",
"                                                                                ",
"                                                                                ",
"                                                                                ",
"                                                                                ",
"                                                                                ",
"                                                                                ",
"                                                                                ",
"                                                                                ",
"                                                                                ",
"                                                                                ",
"                                                                                ",
"                                                                                ",
"                                                                                "
};
